<svg width="24" height="22" viewBox="0 0 24 22" fill="none" xmlns="http://www.w3.org/2000/svg">
<path d="M15.7081 4.57662C15.3912 4.89307 15.391 5.4066 15.7076 5.72346C17.8381 7.85536 17.8367 11.3254 15.7046 13.4588C15.388 13.7757 15.3882 14.2891 15.705 14.6058C15.8634 14.764 16.0708 14.8432 16.2783 14.8432C16.486 14.8432 16.6935 14.7639 16.8519 14.6055C19.6157 11.8399 19.6171 7.34126 16.8549 4.57702C16.5384 4.26016 16.0248 4.25984 15.7081 4.57662Z" fill="#ADB5BD"/>
<path d="M12.6762 6.90309C12.3593 7.21955 12.3591 7.73308 12.6757 8.04994C13.525 8.89988 13.525 10.2829 12.6756 11.1329C12.359 11.4497 12.3591 11.9632 12.676 12.2799C12.8343 12.4381 13.0418 12.5172 13.2492 12.5172C13.4569 12.5172 13.6645 12.4381 13.8228 12.2794C15.304 10.7973 15.3041 8.38562 13.823 6.9035C13.5065 6.58647 12.9929 6.58631 12.6762 6.90309Z" fill="#ADB5BD"/>
<path d="M20.4453 0.984593C20.1287 0.667651 19.6152 0.667489 19.2984 0.984107C18.9815 1.30072 18.9814 1.81425 19.298 2.13112C23.4074 6.24317 23.4057 12.9358 19.2938 17.0497C18.9771 17.3665 18.9773 17.88 19.2941 18.1967C19.4525 18.3549 19.6599 18.4342 19.8674 18.4342C20.075 18.4342 20.2826 18.3548 20.441 18.1964C25.1848 13.4501 25.1866 5.72891 20.4453 0.984593Z" fill="#ADB5BD"/>
<path d="M5.90015 14.8217C7.98525 14.6781 9.63816 12.935 9.63816 10.8115C9.63816 8.59436 7.83635 6.79068 5.62173 6.79068C3.40695 6.79068 1.60513 8.59436 1.60513 10.8115C1.60513 12.9349 3.25804 14.6779 5.34323 14.8217C3.78204 14.8817 2.40714 15.4458 1.44885 16.4266C0.464365 17.4342 -0.0359455 18.8292 0.00200965 20.461C0.0122284 20.9014 0.372154 21.2532 0.812774 21.2532H10.4299C10.8705 21.2532 11.2304 20.9014 11.2406 20.4609C11.2785 18.8289 10.7781 17.4337 9.79355 16.4261C8.83551 15.4456 7.46101 14.8817 5.90015 14.8217Z" fill="#ADB5BD"/>
</svg>
